<svg width="329" height="81" xmlns="http://www.w3.org/2000/svg">
 <!-- Generator: Sketch 47.1 (45422) - http://www.bohemiancoding.com/sketch -->
 <title>Dattebayo</title>
 <desc>Created with Sketch.</desc>

 <g>
  <title>background</title>
  <rect fill="none" id="canvas_background" height="83" width="331" y="-1" x="-1"/>
 </g>
 <g>
  <title>Layer 1</title>
  <g fill-rule="evenodd" fill="none" id="Page-1">
   <g stroke="#FFFF00" stroke-width="4" id="desktop-intro">
    <g stroke="null" id="Shapes">
     <path stroke="null" fill="none" stroke-width="22" id="Dattebayo" d="m25.726378,21.666279c8.668701,0 8.668701,37.667441 17.337402,37.667441c8.67236,0 8.67236,-37.667441 17.343501,-37.667441c8.67236,0 8.67236,37.667441 17.344721,37.667441c8.67236,0 8.67236,-37.667441 17.343501,-37.667441c8.671141,0 8.671141,37.667441 17.343501,37.667441c8.67236,0 8.67236,-37.667441 17.344721,-37.667441c8.67358,0 8.67358,37.667441 17.34838,37.667441c8.67236,0 8.67236,-37.667441 17.344721,-37.667441c8.67358,0 8.67358,37.667441 17.34716,37.667441c8.67236,0 8.67236,-37.667441 17.34716,-37.667441c8.6748,0 8.6748,37.667441 17.34838,37.667441c8.67236,0 8.67236,-37.667441 17.344721,-37.667441c8.6748,0 8.6748,37.667441 17.350819,37.667441c8.67236,0 8.67236,-37.667441 17.344721,-37.667441c8.678459,0 8.678459,37.667441 17.356918,37.667441c8.678459,0 8.678459,-37.667441 17.356918,-37.667441"/>
    </g>
   </g>
  </g>
 </g>
</svg>